<svg id="Capa_1" enable-background="new 0 0 512 512" height="512" viewBox="0 0 512 512" width="512" xmlns="http://www.w3.org/2000/svg" xmlns:xlink="http://www.w3.org/1999/xlink"><linearGradient id="lg1"><stop offset="0" stop-color="#560dff"/><stop offset="1" stop-color="#73ecff"/></linearGradient><linearGradient id="SVGID_1_" gradientUnits="userSpaceOnUse" x1="74.98" x2="437.019" xlink:href="#lg1" y1="437.019" y2="74.98"/><radialGradient id="SVGID_2_" cx="256" cy="256" gradientUnits="userSpaceOnUse" r="256"><stop offset="0" stop-color="#663deb"/><stop offset="1" stop-color="#25d2db" stop-opacity="0"/></radialGradient><linearGradient id="SVGID_3_" gradientUnits="userSpaceOnUse" x1="-131.467" x2="419.824" xlink:href="#lg1" y1="643.467" y2="92.177"/><radialGradient id="SVGID_4_" cx="301.216" cy="254.788" gradientUnits="userSpaceOnUse" r="181.903"><stop offset=".1894" stop-color="#c2fff0"/><stop offset=".3163" stop-color="#b0faee" stop-opacity=".843"/><stop offset=".5716" stop-color="#80ece7" stop-opacity=".529"/><stop offset=".9289" stop-color="#35d7dd" stop-opacity=".088"/><stop offset="1" stop-color="#25d2db" stop-opacity="0"/></radialGradient><linearGradient id="SVGID_5_" gradientUnits="userSpaceOnUse" x1="-16.161" x2="382.917" xlink:href="#lg1" y1="484.487" y2="85.409"/><linearGradient id="SVGID_6_" gradientUnits="userSpaceOnUse" x1="49.924" x2="339.798" xlink:href="#lg1" y1="423.067" y2="133.194"/><linearGradient id="lg2"><stop offset=".0056" stop-color="#85ffe0"/><stop offset=".127" stop-color="#a3ffe8"/><stop offset=".2884" stop-color="#c4fff0"/><stop offset=".4545" stop-color="#defff7"/><stop offset=".6251" stop-color="#f0fffb"/><stop offset=".8031" stop-color="#fbfffe"/><stop offset="1" stop-color="#fff"/></linearGradient><linearGradient id="SVGID_7_" gradientUnits="userSpaceOnUse" x1="-65.443" x2="434.744" xlink:href="#lg2" y1="589.435" y2="89.248"/><linearGradient id="SVGID_8_" gradientUnits="userSpaceOnUse" x1="206.325" x2="484.552" xlink:href="#lg2" y1="444.6" y2="166.373"/><g><circle cx="256" cy="256" fill="url(#SVGID_1_)" r="256"/><circle cx="256" cy="256" fill="url(#SVGID_2_)" r="256"/><path d="m456.9 256c-.56 107.095-93.807 200.34-200.9 200.9-107.093-.56-200.339-93.806-200.9-200.9.559-107.093 93.807-200.34 200.9-200.9 107.092.56 200.34 93.807 200.9 200.9z" fill="url(#SVGID_3_)"/><path d="m456.9 256c-.56 107.095-93.807 200.34-200.9 200.9-107.093-.56-200.339-93.806-200.9-200.9.559-107.093 93.807-200.34 200.9-200.9 107.092.56 200.34 93.807 200.9 200.9z" fill="url(#SVGID_4_)"/><path d="m219.84 121.552c-58.555 16.566-103.199 71.089-103.24 134.448.04 63.356 44.679 117.875 103.23 134.445 47.61-44.527 96.413-89.914 144.82-134.445-48.403-44.532-97.203-89.919-144.81-134.448z" fill="url(#SVGID_5_)"/><path d="m139.812 210.252c.086-13.109 2.045-25.807 5.604-37.873-17.972 23.444-28.824 52.348-28.817 83.62.04 63.356 44.679 117.875 103.23 134.445 19.578-13.63 39.302-27.393 59.111-41.2-76.314.06-139.547-62.953-139.128-138.992z" fill="url(#SVGID_6_)"/><path d="m259.872 116.655c-13.876-.395-27.3 1.34-40.032 4.898-6.522 1.825-7.862 10.648-2.037 14.046 40.9 23.945 68.944 69.052 68.947 120.401-.002 51.348-28.045 96.455-68.946 120.4-5.82 3.396-4.492 12.22 2.026 14.045 11.546 3.227 23.665 4.955 36.17 4.956 76.02-.193 139.761-64.237 139.396-140.377-.694-73.534-62.003-136.083-135.524-138.369z" fill="url(#SVGID_7_)"/><path d="m278.941 349.245c-8.834.023-17.471-.809-25.849-2.398-10.044 11.739-21.956 21.757-35.246 29.528-5.841 3.411-4.57 12.235 1.974 14.067 11.549 3.229 23.67 4.959 36.18 4.958 62.805-.036 116.912-43.907 134.005-101.691-25.691 33.285-66.022 55.422-111.064 55.536z" fill="url(#SVGID_8_)"/></g></svg>