<svg id="Capa_1" enable-background="new 0 0 512 512" height="512" viewBox="0 0 512 512" width="512" xmlns="http://www.w3.org/2000/svg" xmlns:xlink="http://www.w3.org/1999/xlink"><linearGradient id="lg1"><stop offset="0" stop-color="#ff4747"/><stop offset="1" stop-color="#fff200"/></linearGradient><linearGradient id="SVGID_1_" gradientUnits="userSpaceOnUse" x1="74.981" x2="437.02" xlink:href="#lg1" y1="437.019" y2="74.98"/><radialGradient id="SVGID_2_" cx="256.001" cy="256" gradientUnits="userSpaceOnUse" r="258.6"><stop offset="0" stop-color="#ff4747" stop-opacity=".6"/><stop offset="1" stop-color="#fff200" stop-opacity="0"/></radialGradient><linearGradient id="lg2"><stop offset="0" stop-color="#ffcb00"/><stop offset="1" stop-color="#fffa78"/></linearGradient><linearGradient id="SVGID_3_" gradientUnits="userSpaceOnUse" x1="-79.419" x2="435.072" xlink:href="#lg2" y1="591.419" y2="76.928"/><linearGradient id="SVGID_4_" gradientUnits="userSpaceOnUse" x1="122.096" x2="526.717" xlink:href="#lg2" y1="389.904" y2="-14.717"/><linearGradient id="SVGID_5_" gradientUnits="userSpaceOnUse" x1="13.593" x2="368.931" xlink:href="#lg1" y1="459.444" y2="104.106"/><linearGradient id="SVGID_6_" gradientUnits="userSpaceOnUse" x1="81.57" x2="329.393" xlink:href="#lg1" y1="395.635" y2="147.812"/><linearGradient id="SVGID_7_" gradientUnits="userSpaceOnUse" x1="-30.218" x2="415.22" y1="552.938" y2="107.5"><stop offset="0" stop-color="#fffa78"/><stop offset="1" stop-color="#fff"/></linearGradient><linearGradient id="SVGID_8_" gradientUnits="userSpaceOnUse" x1="6.024" x2="499.657" y1="629.662" y2="136.029"><stop offset="0" stop-color="#fff200"/><stop offset="1" stop-color="#fff"/></linearGradient><g><circle cx="256" cy="256" fill="url(#SVGID_1_)" r="256"/><circle cx="256" cy="256" fill="url(#SVGID_2_)" r="256"/><path d="m262.397 58.77c10.078 16.795 32.618 20.524 47.134 7.967 4.22-3.66 10.848-1.368 12.251 4.211 4.781 19.179 25.289 29.916 43.066 22.844 5.163-2.056 10.912 2.222 10.608 7.875-1.079 19.459 15.42 35.957 34.878 34.879 5.653-.305 9.931 5.445 7.875 10.608-7.072 17.777 3.665 38.285 22.843 43.066 5.579 1.403 7.871 8.031 4.211 12.251-12.558 14.516-8.828 37.056 7.967 47.134 4.892 2.938 4.892 9.856 0 12.793-16.795 10.078-20.526 32.618-7.967 47.134 3.659 4.22 1.368 10.848-4.211 12.251-19.178 4.781-29.915 25.288-22.843 43.066 2.056 5.162-2.222 10.912-7.875 10.608-19.458-1.077-35.958 15.42-34.878 34.879.304 5.653-5.446 9.931-10.608 7.875-17.777-7.071-38.285 3.664-43.066 22.844-1.403 5.579-8.031 7.871-12.251 4.211-14.516-12.559-37.056-8.827-47.134 7.967-2.939 4.893-9.854 4.893-12.793 0-10.078-16.795-32.618-20.526-47.134-7.967-4.22 3.66-10.847 1.369-12.251-4.211-4.781-19.178-25.289-29.914-43.066-22.844-5.162 2.056-10.912-2.222-10.608-7.875 1.079-19.459-15.42-35.958-34.878-34.879-5.653.304-9.931-5.445-7.875-10.608 7.072-17.777-3.665-38.285-22.843-43.066-5.579-1.403-7.871-8.031-4.212-12.251 12.559-14.515 8.828-37.056-7.967-47.134-4.892-2.94-4.892-9.856 0-12.793 16.795-10.079 20.525-32.618 7.967-47.134-3.659-4.22-1.368-10.848 4.211-12.251 19.179-4.781 29.915-25.289 22.843-43.066-2.056-5.162 2.222-10.913 7.875-10.608 19.458 1.078 35.957-15.419 34.878-34.879-.304-5.652 5.445-9.931 10.608-7.875 17.777 7.073 38.285-3.666 43.066-22.844 1.403-5.579 8.031-7.872 12.251-4.211 14.516 12.559 37.056 8.828 47.134-7.967 2.939-4.893 9.855-4.893 12.794 0z" fill="url(#SVGID_3_)"/><circle cx="256" cy="256" fill="url(#SVGID_4_)" r="153.75"/><path d="m223.754 136.361c-52.226 14.644-91.75 63.086-91.779 119.639.029 56.549 39.548 104.987 91.77 119.637 42.507-39.677 85.854-79.958 128.922-119.637-43.065-39.68-86.409-79.962-128.913-119.639z" fill="url(#SVGID_5_)"/><path d="m152.599 215.228c.06-11.683 1.781-22.998 4.926-33.742-15.955 20.851-25.555 46.619-25.55 74.514.029 56.549 39.548 104.988 91.77 119.637 17.474-12.151 35.052-24.395 52.688-36.67-68.022.041-124.129-55.909-123.834-123.739z" fill="url(#SVGID_6_)"/><path d="m259.453 132.024c-12.375-.349-24.35 1.186-35.699 4.338-5.815 1.616-6.996 9.467-1.801 12.497 36.489 21.344 61.404 61.441 61.405 107.141-.002 45.698-24.916 85.796-61.404 107.141-5.191 3.028-4.019 10.879 1.791 12.495 10.293 2.859 21.101 4.39 32.255 4.389 67.876-.135 124.377-56.913 124.022-124.896-.585-65.652-54.93-121.116-120.569-123.105z" fill="url(#SVGID_7_)"/><path d="m276.433 338.966c-7.868.017-15.561-.725-23.023-2.139-8.947 10.444-19.564 19.364-31.419 26.291-5.21 3.042-4.089 10.893 1.745 12.516 10.295 2.861 21.106 4.393 32.263 4.391 56.057-.026 104.134-38.863 119.246-90.398-22.813 29.655-58.684 49.258-98.812 49.339z" fill="url(#SVGID_8_)"/></g></svg>